<?xml version="1.0" standalone="no"?>
<!DOCTYPE svg PUBLIC "-//W3C//DTD SVG 1.1//EN" "http://www.w3.org/Graphics/SVG/1.1/DTD/svg11.dtd">
<svg width="100%" height="100%" version="1.1" xmlns="http://www.w3.org/2000/svg">
<desc>Magic box - output file</desc>
<g transform='scale(2.83464567)'>
<g id="Top" x="0" y="0" stroke="#DDDDDD" stroke-width="1" stroke-opacity="1" fill="none" visibility="visible" transform="translate(-3,284)">
  <path id="sheet 3" d="m 0 0       h 3 h 11.766666666666666 v 3 h 23.133333333333333 v -3 h 11.766666666666666  h 11.766666666666666 v 3 h 23.133333333333333 v -3 h 11.766666666666666  h 11.766666666666666 v 3 h 23.133333333333333 v -3 h 11.766666666666666  h 11.766666666666666 v 3 h 23.133333333333333 v -3 h 11.766666666666666  h 11.766666666666666 v 3 h 23.133333333333333 v -3 h 11.766666666666666  h 11.766666666666666 v 3 h 23.133333333333333 v -3 h 11.766666666666666   h 3 v 3 v 11.766666666666666 h -3 v 23.133333333333333 h 3 v 11.766666666666666  v 11.766666666666666 h -3 v 23.133333333333333 h 3 v 11.766666666666666  v 11.766666666666666 h -3 v 23.133333333333333 h 3 v 11.766666666666666  v 11.766666666666666 h -3 v 23.133333333333333 h 3 v 11.766666666666666  v 11.766666666666666 h -3 v 23.133333333333333 h 3 v 11.766666666666666  v 11.766666666666666 h -3 v 23.133333333333333 h 3 v 11.766666666666666   v 3 h -3 h -70 v -3 h -140 v 3 h -70   h -3 v -3 v -11.766666666666666 h 3 v -23.133333333333333 h -3 v -11.766666666666666  v -11.766666666666666 h 3 v -23.133333333333333 h -3 v -11.766666666666666  v -11.766666666666666 h 3 v -23.133333333333333 h -3 v -11.766666666666666  v -11.766666666666666 h 3 v -23.133333333333333 h -3 v -11.766666666666666  v -11.766666666666666 h 3 v -23.133333333333333 h -3 v -11.766666666666666  v -11.766666666666666 h 3 v -23.133333333333333 h -3 v -11.766666666666666   v -3 " visibility="visible" stroke="#ff0000" fill="none" stroke-opacity="1" stroke-width="0.001mm" transform=""/>
  <path id="sheet 3" d="m 0 0       h 3 h 11.766666666666666 v 3 h 23.133333333333333 v -3 h 11.766666666666666  h 11.766666666666666 v 3 h 23.133333333333333 v -3 h 11.766666666666666  h 11.766666666666666 v 3 h 23.133333333333333 v -3 h 11.766666666666666  h 11.766666666666666 v 3 h 23.133333333333333 v -3 h 11.766666666666666  h 11.766666666666666 v 3 h 23.133333333333333 v -3 h 11.766666666666666  h 11.766666666666666 v 3 h 23.133333333333333 v -3 h 11.766666666666666   h 3 v 3 v 11.766666666666666 h -3 v 23.133333333333333 h 3 v 11.766666666666666  v 11.766666666666666 h -3 v 23.133333333333333 h 3 v 11.766666666666666  v 11.766666666666666 h -3 v 23.133333333333333 h 3 v 11.766666666666666  v 11.766666666666666 h -3 v 23.133333333333333 h 3 v 11.766666666666666  v 11.766666666666666 h -3 v 23.133333333333333 h 3 v 11.766666666666666  v 11.766666666666666 h -3 v 23.133333333333333 h 3 v 11.766666666666666   v 3 h -3 h -70 v -3 h -140 v 3 h -70   h -3 v -3 v -11.766666666666666 h 3 v -23.133333333333333 h -3 v -11.766666666666666  v -11.766666666666666 h 3 v -23.133333333333333 h -3 v -11.766666666666666  v -11.766666666666666 h 3 v -23.133333333333333 h -3 v -11.766666666666666  v -11.766666666666666 h 3 v -23.133333333333333 h -3 v -11.766666666666666  v -11.766666666666666 h 3 v -23.133333333333333 h -3 v -11.766666666666666  v -11.766666666666666 h 3 v -23.133333333333333 h -3 v -11.766666666666666   v -3 " visibility="visible" stroke="#ff0000" fill="none" stroke-opacity="1" stroke-width="0.001mm" transform="translate(289,0)"/>
</g>
<g id="Front" x="0" y="0" stroke="#DDDDDD" stroke-width="1" stroke-opacity="1" fill="none" visibility="visible" transform="translate(285,0)">
  <path id="sheet 2" d="m 0 0       h 3 h 11.566666666666666 v -3 h 23.53333333333333 v 3 h 11.566666666666666  h 11.566666666666666 v -3 h 23.53333333333333 v 3 h 11.566666666666666  h 11.566666666666666 v -3 h 23.53333333333333 v 3 h 11.566666666666666  h 11.566666666666666 v -3 h 23.53333333333333 v 3 h 11.566666666666666  h 11.566666666666666 v -3 h 23.53333333333333 v 3 h 11.566666666666666  h 11.566666666666666 v -3 h 23.53333333333333 v 3 h 11.566666666666666   h 3 v 70 h -3 v 140 h 3 v 70   h -3 h -11.566666666666666 v 3 h -23.53333333333333 v -3 h -11.566666666666666  h -11.566666666666666 v 3 h -23.53333333333333 v -3 h -11.566666666666666  h -11.566666666666666 v 3 h -23.53333333333333 v -3 h -11.566666666666666  h -11.566666666666666 v 3 h -23.53333333333333 v -3 h -11.566666666666666  h -11.566666666666666 v 3 h -23.53333333333333 v -3 h -11.566666666666666  h -11.566666666666666 v 3 h -23.53333333333333 v -3 h -11.566666666666666   h -3 v -11.766666666666666 h 3 v -23.133333333333333 h -3 v -11.766666666666666  v -11.766666666666666 h 3 v -23.133333333333333 h -3 v -11.766666666666666  v -11.766666666666666 h 3 v -23.133333333333333 h -3 v -11.766666666666666  v -11.766666666666666 h 3 v -23.133333333333333 h -3 v -11.766666666666666  v -11.766666666666666 h 3 v -23.133333333333333 h -3 v -11.766666666666666  v -11.766666666666666 h 3 v -23.133333333333333 h -3 v -11.766666666666666   " visibility="visible" fill="none" stroke="#ff0000" stroke-opacity="1" stroke-width="0.001mm" transform=""/>
  <path id="sheet 2" d="m 0 0       h 3 h 11.566666666666666 v -3 h 23.53333333333333 v 3 h 11.566666666666666  h 11.566666666666666 v -3 h 23.53333333333333 v 3 h 11.566666666666666  h 11.566666666666666 v -3 h 23.53333333333333 v 3 h 11.566666666666666  h 11.566666666666666 v -3 h 23.53333333333333 v 3 h 11.566666666666666  h 11.566666666666666 v -3 h 23.53333333333333 v 3 h 11.566666666666666  h 11.566666666666666 v -3 h 23.53333333333333 v 3 h 11.566666666666666   h 3 v 70 h -3 v 140 h 3 v 70   h -3 h -11.566666666666666 v 3 h -23.53333333333333 v -3 h -11.566666666666666  h -11.566666666666666 v 3 h -23.53333333333333 v -3 h -11.566666666666666  h -11.566666666666666 v 3 h -23.53333333333333 v -3 h -11.566666666666666  h -11.566666666666666 v 3 h -23.53333333333333 v -3 h -11.566666666666666  h -11.566666666666666 v 3 h -23.53333333333333 v -3 h -11.566666666666666  h -11.566666666666666 v 3 h -23.53333333333333 v -3 h -11.566666666666666   h -3 v -11.766666666666666 h 3 v -23.133333333333333 h -3 v -11.766666666666666  v -11.766666666666666 h 3 v -23.133333333333333 h -3 v -11.766666666666666  v -11.766666666666666 h 3 v -23.133333333333333 h -3 v -11.766666666666666  v -11.766666666666666 h 3 v -23.133333333333333 h -3 v -11.766666666666666  v -11.766666666666666 h 3 v -23.133333333333333 h -3 v -11.766666666666666  v -11.766666666666666 h 3 v -23.133333333333333 h -3 v -11.766666666666666   " visibility="visible" fill="none" stroke="#ff0000" stroke-opacity="1" stroke-width="0.001mm" transform="translate(0,-289)"/>
</g>
<g id="Left" x="0" y="0" stroke="#DDDDDD" stroke-width="1" stroke-opacity="1" fill="none" visibility="visible" transform="translate(0,null)">
  <path id="sheet 1" d="m 0 0     h 11.566666666666666 v -3 h 23.53333333333333 v 3 h 11.566666666666666  h 11.566666666666666 v -3 h 23.53333333333333 v 3 h 11.566666666666666  h 11.566666666666666 v -3 h 23.53333333333333 v 3 h 11.566666666666666  h 11.566666666666666 v -3 h 23.53333333333333 v 3 h 11.566666666666666  h 11.566666666666666 v -3 h 23.53333333333333 v 3 h 11.566666666666666  h 11.566666666666666 v -3 h 23.53333333333333 v 3 h 11.566666666666666   v 11.566666666666666 h 3 v 23.53333333333333 h -3 v 11.566666666666666  v 11.566666666666666 h 3 v 23.53333333333333 h -3 v 11.566666666666666  v 11.566666666666666 h 3 v 23.53333333333333 h -3 v 11.566666666666666  v 11.566666666666666 h 3 v 23.53333333333333 h -3 v 11.566666666666666  v 11.566666666666666 h 3 v 23.53333333333333 h -3 v 11.566666666666666  v 11.566666666666666 h 3 v 23.53333333333333 h -3 v 11.566666666666666   h -11.566666666666666 v 3 h -23.53333333333333 v -3 h -11.566666666666666  h -11.566666666666666 v 3 h -23.53333333333333 v -3 h -11.566666666666666  h -11.566666666666666 v 3 h -23.53333333333333 v -3 h -11.566666666666666  h -11.566666666666666 v 3 h -23.53333333333333 v -3 h -11.566666666666666  h -11.566666666666666 v 3 h -23.53333333333333 v -3 h -11.566666666666666  h -11.566666666666666 v 3 h -23.53333333333333 v -3 h -11.566666666666666   v -11.566666666666666 h -3 v -23.53333333333333 h 3 v -11.566666666666666  v -11.566666666666666 h -3 v -23.53333333333333 h 3 v -11.566666666666666  v -11.566666666666666 h -3 v -23.53333333333333 h 3 v -11.566666666666666  v -11.566666666666666 h -3 v -23.53333333333333 h 3 v -11.566666666666666  v -11.566666666666666 h -3 v -23.53333333333333 h 3 v -11.566666666666666  v -11.566666666666666 h -3 v -23.53333333333333 h 3 v -11.566666666666666   " stroke-opacity="1" visibility="visible" stroke="#ff0000" fill="none" stroke-width="0.001mm" transform=""/>
  <path id="sheet 1" d="m 0 0     h 70 v -3 h 140 v 3 h 70   v 70 h 3 v 140 h -3 v 70   h -70 v 3 h -140 v -3 h -70   v -70 h -3 v -140 h 3 v -70   " stroke-opacity="1" visibility="visible" stroke="#ff0000" fill="none" stroke-width="0.001mm" transform="translate(0,-289)"/>
</g>
</g></svg>